<svg xmlns="http://www.w3.org/2000/svg" width="59.487" height="71.397" viewBox="0 0 59.487 71.397">
  <g id="Icon_ionic-logo-apple" data-name="Icon ionic-logo-apple" transform="translate(-6.748 -4.5)">
    <path id="Path_12083" data-name="Path 12083" d="M50.918,10.821c-6.246,0-8.885,3.067-13.235,3.067-4.461,0-7.863-3.048-13.272-3.048-5.3,0-10.948,3.327-14.536,9-5.037,7.993-4.182,23.049,3.978,35.875,2.918,4.591,6.822,9.74,11.934,9.8h.093c4.443,0,5.762-2.993,11.878-3.03h.093c6.023,0,7.231,3.011,11.655,3.011H49.6c5.112-.056,9.22-5.762,12.138-10.335a50.843,50.843,0,0,0,4.5-8.662c-11.8-4.61-13.7-21.823-2.026-28.421-3.569-4.591-8.569-7.249-13.291-7.249Z" transform="translate(0 10.39)" fill="#f87758"/>
    <path id="Path_12084" data-name="Path 12084" d="M31.775,4.5a16.255,16.255,0,0,0-10.6,5.874c-2.3,2.881-4.2,7.156-3.457,11.3h.3c3.959,0,8.012-2.454,10.372-5.6A15.832,15.832,0,0,0,31.775,4.5Z" transform="translate(17.768 0)" fill="#f87758"/>
  </g>
</svg>
